<?xml version="1.0" standalone="no"?>
<!DOCTYPE svg PUBLIC "-//W3C//DTD SVG 20010904//EN"
 "http://www.w3.org/TR/2001/REC-SVG-20010904/DTD/svg10.dtd">
<svg version="1.0" xmlns="http://www.w3.org/2000/svg"
 width="1000.000000pt" height="1000.000000pt" viewBox="0 0 1000.000000 1000.000000"
 preserveAspectRatio="xMidYMid meet">
<metadata>
Created by potrace 1.11, written by Peter Selinger 2001-2013
</metadata>
<g transform="translate(0.000000,1000.000000) scale(0.100000,-0.100000)"
fill="#000000" stroke="none">
<path d="M3621 7290 c-9 -7 -8 -717 1 -726 4 -3 4 -14 0 -23 -5 -9 -8 -209 -7
-446 l0 -430 1565 0 1565 0 0 815 0 815 -1559 0 c-857 0 -1561 -2 -1565 -5z
m784 -169 c-9 -8 -36 -10 -30 -2 2 4 11 8 20 8 8 0 13 -3 10 -6z m645 -77 c0
-8 -19 -13 -24 -6 -3 5 1 9 9 9 8 0 15 -2 15 -3z m635 -3 c3 -5 2 -12 -3 -15
-5 -3 -9 1 -9 9 0 17 3 19 12 6z m-1760 -150 c3 -5 2 -12 -3 -15 -5 -3 -9 1
-9 9 0 17 3 19 12 6z m2402 -6 c0 -8 -4 -12 -9 -9 -5 3 -6 10 -3 15 9 13 12
11 12 -6z m333 -1 c0 -8 -19 -13 -24 -6 -3 5 1 9 9 9 8 0 15 -2 15 -3z m-2975
-164 c3 -5 1 -10 -4 -10 -6 0 -11 5 -11 10 0 6 2 10 4 10 3 0 8 -4 11 -10z
m1601 -16 c1 -9 0 -13 -4 -10 -3 4 -7 14 -8 22 -1 9 0 13 4 10 3 -4 7 -14 8
-22z m864 -380 c0 -8 -19 -13 -24 -6 -3 5 1 9 9 9 8 0 15 -2 15 -3z m-2385
-73 c3 -5 2 -12 -3 -15 -5 -3 -9 1 -9 9 0 17 3 19 12 6z m2722 -6 c0 -8 -4
-12 -9 -9 -5 3 -6 10 -3 15 9 13 12 11 12 -6z m-2560 -160 c0 -8 -4 -12 -9 -9
-5 3 -6 10 -3 15 9 13 12 11 12 -6z m-80 -140 c0 -8 -4 -12 -9 -9 -5 3 -6 10
-3 15 9 13 12 11 12 -6z m413 -21 c0 -8 -19 -13 -24 -6 -3 5 1 9 9 9 8 0 15
-2 15 -3z m1585 -3 c3 -5 2 -12 -3 -15 -5 -3 -9 1 -9 9 0 17 3 19 12 6z m335
3 c0 -8 -19 -13 -24 -6 -3 5 1 9 9 9 8 0 15 -2 15 -3z m-1533 -29 c0 -8 -4
-12 -9 -9 -5 3 -6 10 -3 15 9 13 12 11 12 -6z m-77 -55 c0 -5 -4 -10 -10 -10
-5 0 -10 5 -10 10 0 6 5 10 10 10 6 0 10 -4 10 -10z m1125 0 c3 -6 -1 -7 -9
-4 -18 7 -21 14 -7 14 6 0 13 -4 16 -10z"/>
<path d="M2989 5753 c-13 -21 -19 -38 -12 -40 24 -8 46 -31 39 -41 -5 -9 -15
-8 -37 4 -17 8 -32 14 -33 12 -1 -2 -12 -19 -24 -38 l-21 -34 47 -34 c79 -57
79 -57 104 -17 13 19 27 35 31 35 5 0 118 -63 251 -139 133 -77 260 -149 282
-161 21 -12 84 -48 139 -80 55 -32 116 -67 135 -78 19 -11 64 -36 98 -56 64
-36 82 -42 82 -28 0 6 -334 200 -675 392 -34 19 -116 66 -183 104 l-121 69 25
30 c14 16 23 34 21 40 -1 5 -30 30 -64 54 l-61 43 -23 -37z"/>
<path d="M7325 5758 c-33 -17 -62 -32 -64 -34 -2 -1 7 -24 19 -49 13 -26 19
-50 14 -55 -8 -7 -475 -245 -907 -462 -64 -33 -120 -57 -125 -55 -4 3 -7 117
-7 254 l0 249 -1090 0 -1091 0 0 -561 0 -560 366 0 365 0 0 -375 c0 -206 -3
-380 -7 -385 -4 -6 -23 -12 -43 -13 -90 -6 -180 -79 -204 -164 l-12 -43 -287
0 -287 0 0 -405 0 -405 1145 0 1145 0 0 405 0 405 -178 0 -178 0 -11 44 c-16
63 -88 136 -151 152 -26 7 -48 16 -48 19 -1 3 -2 175 -3 382 -1 244 3 379 9
381 6 2 134 3 285 2 l275 -1 0 302 c0 224 3 300 11 297 7 -2 245 113 529 257
521 264 534 270 535 223 0 -26 24 -23 88 9 37 18 68 34 70 35 3 1 -26 63 -33
71 -2 2 -17 -3 -33 -12 -26 -14 -31 -14 -36 -1 -3 10 5 20 24 30 l29 15 -20
35 c-12 19 -24 37 -28 39 -3 2 -33 -10 -66 -26z m-1664 -1278 c1 -3 2 -175 3
-383 l1 -377 -35 -6 c-107 -18 -181 -75 -205 -157 l-15 -52 -189 0 -190 0 -12
45 c-17 59 -91 134 -148 150 -22 6 -42 16 -42 23 -1 7 -2 179 -3 382 -1 282 2
371 11 375 7 3 195 5 418 5 223 0 406 -2 406 -5z"/>
<path d="M8300 2863 c-92 -12 -202 -67 -235 -117 -61 -93 -18 -195 103 -249
75 -34 102 -39 193 -39 93 0 171 21 235 64 81 55 107 134 69 207 -22 43 -99
97 -165 115 -55 16 -152 25 -200 19z"/>
</g>
</svg>
